<?xml version="1.0" encoding="iso-8859-1"?>
<!-- Generator: Adobe Illustrator 18.1.1, SVG Export Plug-In . SVG Version: 6.00 Build 0)  -->
<svg version="1.1" id="Capa_1" xmlns="http://www.w3.org/2000/svg" xmlns:xlink="http://www.w3.org/1999/xlink" x="0px" y="0px"
	 viewBox="0 0 52.045 52.045" style="enable-background:new 0 0 52.045 52.045;" xml:space="preserve">
<g>
	<g>
		<path style="fill:#010002;" d="M38.29,18.097c-2.103,1.605-4.333,2.987-6.616,4.298c-0.836-0.78-1.963-1.156-3.259-0.809
			c-1.198,0.321-2.302,1.43-2.634,2.688c-1.442,0.184-2.891,0.338-4.339,0.467c-0.145-2.148-0.114-4.364,0.438-6.396
			c0.47-1.726-1.319-2.728-2.604-2.266l-1.989-6.378c2.013-0.886,3.006-3.466,2.222-5.978c-0.833-2.669-3.357-4.263-5.629-3.555
			c-2.271,0.708-3.441,3.456-2.609,6.125c0.791,2.534,3.108,4.096,5.284,3.64l2.054,6.585c-0.192,0.207-0.347,0.468-0.439,0.804
			c-0.824,3.035-0.724,6.381-0.388,9.488c0.105,0.979,0.795,2.007,1.923,1.924c2.29-0.171,4.575-0.414,6.853-0.711
			c0.888,2.934,1.182,5.893,0.838,9c-1.865,1.018-3.954,1.307-6.09,0.934c-3.031-0.531-4.328,4.104-1.279,4.637
			c3.056,0.535,6.162,0.35,8.934-0.959c-1.121,2.893-3.479,4.779-7.029,5.687c-3.004,0.767-1.729,5.401,1.277,4.638
			c7.031-1.793,11.008-6.921,11.311-14.117c0.015-0.08,0.027-0.158,0.039-0.239c0.525-3.96,0.104-7.99-1.123-11.778
			c2.347-1.342,4.641-2.753,6.795-4.402C42.174,19.933,40.262,16.59,38.29,18.097z M11.949,6.082
			c-0.718-2.294,0.245-4.644,2.143-5.236c1.899-0.592,4.026,0.793,4.741,3.089c0.716,2.295-0.247,4.644-2.144,5.237
			C14.789,9.764,12.664,8.377,11.949,6.082z"/>
		<circle style="fill:#010002;" cx="29.322" cy="16.595" r="4.167"/>
		<polygon style="fill:#010002;" points="38.779,4.145 34.931,5.347 34.931,6.786 38.779,7.748 		"/>
	</g>
</g>
<g>
</g>
<g>
</g>
<g>
</g>
<g>
</g>
<g>
</g>
<g>
</g>
<g>
</g>
<g>
</g>
<g>
</g>
<g>
</g>
<g>
</g>
<g>
</g>
<g>
</g>
<g>
</g>
<g>
</g>
</svg>
