<?xml version="1.0" encoding="iso-8859-1"?>
<!-- Generator: Adobe Illustrator 19.0.0, SVG Export Plug-In . SVG Version: 6.00 Build 0)  -->
<svg version="1.1" id="Capa_1" xmlns="http://www.w3.org/2000/svg" xmlns:xlink="http://www.w3.org/1999/xlink" x="0px" y="0px"
	 viewBox="0 0 512 512" style="enable-background:new 0 0 512 512;" xml:space="preserve">
<g transform="matrix(1.25 0 0 -1.25 0 45)">
	<path style="fill:#55ACEE;" d="M318.721,36h-227.6c-33.7,0-68.3-56.9-56.9-79.6c18.3-36.7,136.5-147.9,136.5-147.9h68.3
		c0,0,113.8,113.8,136.5,147.9C386.921-20.9,349.021,36,318.721,36z M273.221-55l-68.3-68.3l-68.3,68.3
		c-22.8,22.8-11.4,22.8,68.3,22.8C295.921-32.3,290.221-38,273.221-55z"/>
	<path style="fill:#3B88C3;" d="M126.421-41.2c-1.4,8.9,20.3,8.9,78.5,8.9c83.1,0,85.6-4.7,72.4-18.6c63.3,65,43.9,86.8,18.6,86.8
		h-182C73.221,36,102.321-10.5,126.421-41.2z"/>
	<g>
		<path style="fill:#FF8A3B;" d="M295.921-282.6c0,34.1-18.8,63.9-46.6,79.4c0.7,1.8,1.1,3.8,1.1,5.9c0,9.4-7.6,17.1-17.1,17.1
			h-56.9c-9.4,0-17.1-7.6-17.1-17.1c0-2.1,0.4-4,1.1-5.9c-27.8-15.6-46.6-45.3-46.6-79.4c0-50.3,40.7-91,91-91
			C255.221-373.6,295.921-332.8,295.921-282.6z"/>
		<path style="fill:#7C4119;" d="M223.221-277.8v0.5c7.2,3.3,16.4,12.4,16.4,24.7c0,17.9-16,29.2-34.5,29.2
			c-17.4,0-30.5-14.1-30.5-14.1c-1.1-1.1-1.3-3,0-4.1l9.7-9.6c1.3-1.1,3.2-1.1,4.3,0.2c2.4,2.7,6.9,6.4,13.9,6.4
			c6.9,0,12.8-5.1,12.8-12c0-6.9-5.9-12.3-17.1-12.3h-5.4c-1.6,0-3-1.3-3-3v-13.2c0-1.6,1.4-3,3-3h5.4c11.8,0,19-5.9,19-12.9
			s-7-12.8-13.9-12.8c-7.6,0-17.5,7.3-17.5,7.3c-1.3,1-2.9,0.8-4-0.3l-10.1-10.1c-1-1.1-1.1-2.9-0.2-4c3.3-4.3,13.6-14.2,33.7-14.2
			c22,0,37.2,13.1,37.2,30.5C242.521-290.8,230.721-281,223.221-277.8z"/>
	</g>
</g>
<g>
</g>
<g>
</g>
<g>
</g>
<g>
</g>
<g>
</g>
<g>
</g>
<g>
</g>
<g>
</g>
<g>
</g>
<g>
</g>
<g>
</g>
<g>
</g>
<g>
</g>
<g>
</g>
<g>
</g>
</svg>
