<?xml version="1.0" encoding="iso-8859-1"?>
<!-- Generator: Adobe Illustrator 19.0.0, SVG Export Plug-In . SVG Version: 6.00 Build 0)  -->
<svg version="1.1" id="Capa_1" xmlns="http://www.w3.org/2000/svg" xmlns:xlink="http://www.w3.org/1999/xlink" x="0px" y="0px"
	 viewBox="0 0 512 512" style="enable-background:new 0 0 512 512;" xml:space="preserve">
<g transform="matrix(1.25 0 0 -1.25 0 45)">
	<path style="fill:#55ACEE;" d="M34.204-43.6c18.3-36.7,136.5-147.9,136.5-147.9h68.3c0,0,113.8,113.8,136.5,147.9
		c11.4,22.7-26.5,79.6-56.8,79.6h-227.6C57.504,36,22.904-20.9,34.204-43.6z M204.904-32.3c91,0,85.3-5.7,68.3-22.8l-68.3-68.3
		l-68.3,68.4C113.904-32.3,125.304-32.3,204.904-32.3z"/>
	<path style="fill:#3B88C3;" d="M126.404-41.2c-1.4,8.9,20.3,8.9,78.5,8.9c83.1,0,85.6-4.7,72.4-18.6c63.3,65,43.9,86.8,18.6,86.8
		h-182C73.204,36,102.304-10.5,126.404-41.2z"/>
	<g>
		<path style="fill:#FFAC33;" d="M295.904-282.6c0,34.1-18.8,63.9-46.6,79.4c0.7,1.8,1.1,3.8,1.1,5.9c0,9.4-7.6,17.1-17.1,17.1
			h-56.9c-9.4,0-17.1-7.6-17.1-17.1c0-2.1,0.4-4,1.1-5.9c-27.8-15.6-46.6-45.3-46.6-79.4c0-50.3,40.7-91,91-91
			C255.204-373.6,295.904-332.8,295.904-282.6z"/>
		<path style="fill:#9E5200;" d="M196.133-258.81h-15.3c-1.6,0-2.9,1.4-2.9,3v10c0,0.6,0.5,1.9,1,2.4l23.3,18.2h14.7
			c1.6,0,2.9-1.4,2.9-3v-102.4c0-1.6-1.3-3-2.9-3h-17.7c-1.8,0-3,1.4-3,3v71.8L196.133-258.81L196.133-258.81z"/>
	</g>
</g>
<g>
</g>
<g>
</g>
<g>
</g>
<g>
</g>
<g>
</g>
<g>
</g>
<g>
</g>
<g>
</g>
<g>
</g>
<g>
</g>
<g>
</g>
<g>
</g>
<g>
</g>
<g>
</g>
<g>
</g>
</svg>
