<?xml version="1.0" encoding="iso-8859-1"?>
<!-- Generator: Adobe Illustrator 19.0.0, SVG Export Plug-In . SVG Version: 6.00 Build 0)  -->
<svg version="1.1" id="Capa_1" xmlns="http://www.w3.org/2000/svg" xmlns:xlink="http://www.w3.org/1999/xlink" x="0px" y="0px"
	 viewBox="0 0 512 512" style="enable-background:new 0 0 512 512;" xml:space="preserve">
<g transform="matrix(1.25 0 0 -1.25 0 45)">
	<path style="fill:#55ACEE;" d="M34.204-43.6c18.3-36.7,136.5-147.9,136.5-147.9h68.3c0,0,113.8,113.8,136.5,147.9
		c11.4,22.7-26.5,79.6-56.8,79.6h-227.6C57.504,36,22.904-20.9,34.204-43.6z M204.904-32.3c91,0,85.3-5.7,68.3-22.8l-68.3-68.3
		l-68.3,68.4C113.904-32.3,125.304-32.3,204.904-32.3z"/>
	<path style="fill:#3B88C3;" d="M126.404-41.2c-1.4,8.9,20.3,8.9,78.5,8.9c83.1,0,85.6-4.7,72.4-18.6c63.3,65,43.9,86.8,18.6,86.8
		h-182C73.204,36,102.304-10.5,126.404-41.2z"/>
	<g>
		<path style="fill:#CCD6DD;" d="M295.904-282.6c0,34.1-18.8,63.9-46.6,79.4c0.7,1.8,1.1,3.8,1.1,5.9c0,9.4-7.6,17.1-17.1,17.1
			h-56.9c-9.4,0-17.1-7.6-17.1-17.1c0-2.1,0.4-4,1.1-5.9c-27.8-15.6-46.6-45.3-46.6-79.4c0-50.3,40.7-91,91-91
			C255.204-373.6,295.904-332.8,295.904-282.6z"/>
		<path style="fill:#627077;" d="M239.004-313.2h-30.2c7.5,10.5,20.6,27.6,25.7,36.7c3.8,7.5,6.2,12.3,6.2,20.7
			c0,17.7-13.4,32.2-36.2,32.2c-19,0-31.9-15.6-31.9-15.6c-1.1-1.3-1-3.2,0.2-4.2l9.7-9.9c1.3-1.3,3.2-1.3,4.5,0c3,3.3,8.9,8,15.5,8
			c8.9,0,14.1-5.4,14.1-11.5c0-4.5-2.1-8.9-4.2-12.1c-9.4-14.3-33-46.4-42.3-58.6v-3.2c0-1.6,1.3-3,3-3h66c1.6,0,3,1.4,3,3v14.3
			C242.104-314.6,240.604-313.2,239.004-313.2z"/>
	</g>
</g>
<g>
</g>
<g>
</g>
<g>
</g>
<g>
</g>
<g>
</g>
<g>
</g>
<g>
</g>
<g>
</g>
<g>
</g>
<g>
</g>
<g>
</g>
<g>
</g>
<g>
</g>
<g>
</g>
<g>
</g>
</svg>
