<?xml version="1.0" encoding="iso-8859-1"?>
<!-- Generator: Adobe Illustrator 16.0.0, SVG Export Plug-In . SVG Version: 6.00 Build 0)  -->
<!DOCTYPE svg PUBLIC "-//W3C//DTD SVG 1.1//EN" "http://www.w3.org/Graphics/SVG/1.1/DTD/svg11.dtd">
<svg version="1.1" id="Capa_1" xmlns="http://www.w3.org/2000/svg" xmlns:xlink="http://www.w3.org/1999/xlink" x="0px" y="0px"
	 width="296.805px" height="296.805px" viewBox="0 0 296.805 296.805" style="enable-background:new 0 0 296.805 296.805;"
	 xml:space="preserve">
<g>
	<g>
		<path d="M275.765,133.105c0-32.738-12.742-63.525-35.896-86.676c-23.161-23.155-53.93-35.903-86.686-35.903
			c-32.744,0-63.519,12.748-86.683,35.903C26.565,86.373,19.303,147.217,47.495,195.006L3.906,238.57
			C1.408,241.075,0,244.468,0,247.998c0,3.524,1.408,6.93,3.906,9.422l24.944,24.95c2.609,2.6,6.02,3.902,9.428,3.902
			c3.419,0,6.818-1.303,9.427-3.902l43.583-43.577c18.747,11.03,39.986,16.813,62.048,16.813h0.012
			c32.675,0,63.407-12.73,86.508-35.837C262.998,196.627,275.765,165.847,275.765,133.105z M80.077,212.3l-41.799,41.793
			l-6.08-6.089l41.788-41.787c4.629-4.618,5.221-11.919,1.402-17.228c-9.199-12.778-14.784-27.076-17.026-41.697l80.581,80.572
			c-14.997-2.246-29.189-7.986-41.64-16.951C91.987,207.075,84.695,207.664,80.077,212.3z"/>
		<path d="M266.253,225.18c-16.85,0-30.553,13.709-30.553,30.553c0,16.843,13.703,30.546,30.553,30.546
			c16.837,0,30.552-13.703,30.552-30.546C296.805,238.877,283.09,225.18,266.253,225.18z"/>
	</g>
</g>
<g>
</g>
<g>
</g>
<g>
</g>
<g>
</g>
<g>
</g>
<g>
</g>
<g>
</g>
<g>
</g>
<g>
</g>
<g>
</g>
<g>
</g>
<g>
</g>
<g>
</g>
<g>
</g>
<g>
</g>
</svg>
